<svg xmlns="http://www.w3.org/2000/svg" aria-hidden="true" overflow="hidden" style="position:absolute;width:0;height:0">
  <defs>
    <symbol id="icon-arrow" viewBox="0 0 32 32">
      <path d="M.944 17.257c-.322-.322-.52-.766-.52-1.257s.199-.935.52-1.257L12.258 3.429a1.778 1.778 0 1 1 2.515 2.513h-.001L4.715 15.999l10.057 10.057a1.778 1.778 0 1 1-2.513 2.515L.943 17.257zM32 17.778H2.201v-3.556H32v3.556z"/>
    </symbol>
    <symbol id="icon-crown" viewBox="0 0 32 32">
      <path d="M29.687 10.327a1.617 1.617 0 0 0-1.849-.269l.009-.004-6.307 3.08a.22.22 0 0 1-.267-.034.265.265 0 0 1-.066-.079l-.001-.001-3.673-7.287a1.854 1.854 0 0 0-.633-.729L16.893 5a1.616 1.616 0 0 0-1.78.004L15.119 5c-.267.18-.487.433-.64.733l-3.687 7.287a.251.251 0 0 1-.06.08.23.23 0 0 1-.078.053l-.002.001a.235.235 0 0 1-.093.007.228.228 0 0 1-.094-.027l.001.001-6.313-3.08a1.599 1.599 0 0 0-1.834.268l.001-.001a1.974 1.974 0 0 0-.637 1.477c0 .162.018.32.053.471l-.003-.014 3.18 14.88a2 2 0 0 0 .298.707l-.005-.007c.133.207.313.38.52.513a1.575 1.575 0 0 0 1.371.197l-.011.003c2.668-.844 5.736-1.33 8.918-1.33 3.174 0 6.234.484 9.112 1.382l-.217-.058a1.591 1.591 0 0 0 1.373-.191l-.006.004c.2-.133.38-.307.527-.52.133-.2.24-.447.293-.7l3.173-14.887c.08-.347.067-.713-.033-1.053a1.922 1.922 0 0 0-.532-.872l-.001-.001zm-.874 1.533-3.187 14.9a.344.344 0 0 1-.113.173.304.304 0 0 1-.2.033c-2.786-.881-5.99-1.389-9.313-1.389s-6.527.508-9.539 1.45l.226-.061a.224.224 0 0 1-.201-.034h.001a.251.251 0 0 1-.066-.072l-.001-.001a.277.277 0 0 1-.046-.098v-.002L3.187 11.866a.317.317 0 0 1 .054-.235l-.001.001a.266.266 0 0 1 .085-.079l.001-.001a.273.273 0 0 1 .113-.033l.1.033 6.32 3.093c.4.2.853.22 1.267.067s.76-.467.973-.893l3.687-7.287a.25.25 0 0 1 .086-.106l.001-.001a.218.218 0 0 1 .254.001h-.001a.35.35 0 0 1 .087.107L19.9 13.82c.207.42.56.74.973.893s.867.133 1.267-.067l6.32-3.093a.224.224 0 0 1 .266.04.289.289 0 0 1 .08.12c.013.053.013.1 0 .153zm-8.066 10.453a.883.883 0 0 1-.247.533.713.713 0 0 1-.5.213h-.073a36.118 36.118 0 0 0-8.018.015l.164-.015a.696.696 0 0 1-.547-.18.872.872 0 0 1-.28-.547.924.924 0 0 1 .173-.607.75.75 0 0 1 .507-.307 35.46 35.46 0 0 1 8.147 0c.2.027.38.133.5.3.133.167.193.38.173.6z"/>
    </symbol>
    <symbol id="icon-facebook" viewBox="0 0 32 32">
      <path d="M23.987 2.128a36.016 36.016 0 0 0-3.936-.208h-.12.006c-4.484 0-7.27 2.856-7.27 7.453v3.122H8.9a.667.667 0 0 0-.667.666v5.134a.667.667 0 0 0 .667.666h3.767v10.294a.667.667 0 0 0 .666.666h5.304a.667.667 0 0 0 .667-.666V18.96h3.755a.668.668 0 0 0 .661-.577v-.003l.663-5.133a.665.665 0 0 0-.659-.753h-4.42V9.883c0-1.294.26-1.834 1.877-1.834h2.72a.667.667 0 0 0 .666-.666V2.789a.668.668 0 0 0-.577-.66h-.003zm-.754 4.587-2.053.001c-2.876 0-3.21 1.808-3.21 3.167v3.28a.667.667 0 0 0 .666.666h4.328l-.492 3.8h-3.835a.667.667 0 0 0-.666.667v10.29H14v-10.29a.667.667 0 0 0-.667-.667H9.568v-3.8h3.765a.667.667 0 0 0 .667-.666v-3.79c0-3.832 2.22-6.12 5.937-6.12 1.346 0 2.56.074 3.296.138v3.324z"/>
    </symbol>
    <symbol id="icon-instagram" viewBox="0 0 32 32">
      <path d="M16 10.25a5.75 5.75 0 1 0 0 11.5 5.75 5.75 0 1 0 0-11.5zm0 10A4.25 4.25 0 1 1 20.25 16a4.263 4.263 0 0 1-4.249 4.25H16zm5.5-16.5h-11a6.75 6.75 0 0 0-6.75 6.75v11a6.75 6.75 0 0 0 6.75 6.75h11a6.75 6.75 0 0 0 6.75-6.75v-11a6.75 6.75 0 0 0-6.75-6.75zm5.25 17.75a5.25 5.25 0 0 1-5.25 5.25h-11a5.25 5.25 0 0 1-5.25-5.25v-11a5.25 5.25 0 0 1 5.25-5.25h11a5.25 5.25 0 0 1 5.25 5.25v11zm-3-12a1.25 1.25 0 0 1-2.5 0 1.25 1.25 0 0 1 2.5 0z"/>
    </symbol>
    <symbol id="icon-science" viewBox="0 0 32 32">
      <path d="M16.067 1.4c-1.053 0-2.033.48-2.867 1.267a9.983 9.983 0 0 0-2.129 3.122l-.025.065c-.127.28-.247.567-.36.867-.216-.04-.533-.084-.852-.12l-.075-.007a12.654 12.654 0 0 0-1.035-.066h-.018c-1.027-.02-1.967.087-2.787.333-1.093.333-2 .94-2.527 1.853-.52.907-.6 2-.333 3.113a9.962 9.962 0 0 0 1.704 3.477l-.018-.024c.18.247.367.493.567.74-.168.207-.354.45-.533.698l-.033.048a9.879 9.879 0 0 0-1.677 3.383l-.016.07a4.109 4.109 0 0 0-.152 1.123 4.2 4.2 0 0 0 .51 2.012l-.011-.022a4.24 4.24 0 0 0 2.504 1.847l.029.007c1.093.333 2.393.407 3.833.267.307-.033.613-.073.933-.127.107.293.227.58.353.867.6 1.32 1.313 2.407 2.147 3.193a4.205 4.205 0 0 0 2.859 1.266h.008c1.053 0 2.033-.487 2.867-1.267a9.975 9.975 0 0 0 2.122-3.135l.025-.065c.133-.28.247-.567.36-.86.313.053.627.093.927.12 1.44.147 2.747.067 3.84-.26 1.093-.333 2-.94 2.527-1.853.527-.907.6-2 .333-3.113a9.962 9.962 0 0 0-1.704-3.477l.018.024a16.138 16.138 0 0 0-.59-.77l.024.03c.2-.247.387-.493.567-.747a9.875 9.875 0 0 0 1.677-3.384l.016-.07c.26-1.12.187-2.207-.34-3.113a4.235 4.235 0 0 0-2.497-1.847l-.029-.007a8.718 8.718 0 0 0-2.804-.333l.017-.001c-.387.01-.752.034-1.114.072l.06-.005c-.3.033-.613.073-.927.127a14.33 14.33 0 0 0-.402-.97l.042.104a10.011 10.011 0 0 0-2.146-3.186A4.205 4.205 0 0 0 16.076 1.4h-.008zm0 1.167c.693 0 1.38.307 2.067.947.673.64 1.327 1.6 1.88 2.82l.253.6c-1.333.3-2.76.76-4.2 1.367-1.453-.607-2.867-1.067-4.213-1.36l.26-.6c.547-1.227 1.2-2.187 1.88-2.827a3.02 3.02 0 0 1 2.06-.946h.007zM8.333 7.7h.088c.431 0 .858.022 1.278.065l-.053-.004.653.08a23.491 23.491 0 0 0-.914 4.198l-.013.122a25.032 25.032 0 0 0-3.266 2.944l-.014.016-.4-.52a8.836 8.836 0 0 1-1.485-2.977l-.015-.063a2.969 2.969 0 0 1-.128-.871c0-.51.126-.991.35-1.412l-.008.016a3.04 3.04 0 0 1 1.833-1.309l.021-.004c.587-.18 1.287-.28 2.073-.287zm15.454 0c.787 0 1.487.1 2.073.273.784.19 1.433.666 1.846 1.308l.007.012c.353.607.427 1.36.213 2.267a8.906 8.906 0 0 1-1.516 3.061l.016-.021-.4.527a24.956 24.956 0 0 0-3.218-2.915l-.062-.045c-.2-1.56-.507-3.02-.92-4.333l.647-.073c.387-.042.836-.067 1.291-.067h.024-.001zm-3.12.347a20.9 20.9 0 0 1 .741 3.04l.019.134a30.784 30.784 0 0 0-3.702-2.164l-.185-.083c1.087-.4 2.133-.713 3.127-.927zm-9.207 0c.987.213 2.04.527 3.12.933a31.416 31.416 0 0 0-3.989 2.311l.11-.071c.204-1.229.468-2.298.805-3.334l-.045.16zm4.6 1.533a28.964 28.964 0 0 1 3.021 1.536l-.141-.076c.96.553 1.867 1.147 2.7 1.76.111.967.175 2.088.175 3.223s-.064 2.256-.187 3.359l.012-.135a29.089 29.089 0 0 1-2.559 1.684l-.141.076c-.774.461-1.719.951-2.692 1.391l-.188.076a29.209 29.209 0 0 1-3.02-1.543l.14.076a29.378 29.378 0 0 1-2.782-1.818l.082.058a29.031 29.031 0 0 1-.173-3.214v-.013.001c0-1.107.06-2.187.173-3.22a29.066 29.066 0 0 1 2.565-1.684l.142-.076a27.658 27.658 0 0 1 2.686-1.391l.188-.076zm.08 1.753L12.793 13.4l3.347 2.067 3.34-2.067-3.34-2.067zM9.22 13.78a32.568 32.568 0 0 0 .006 4.59l-.006-.104a22.914 22.914 0 0 1-2.351-2.229l-.016-.017c.734-.8 1.506-1.533 2.328-2.209l.039-.031zm13.687 0c.857.707 1.628 1.44 2.344 2.223l.016.017a22.847 22.847 0 0 1-2.322 2.216l-.038.03a32.568 32.568 0 0 0-.006-4.59l.006.104zm-10.867.527v4.073l3.513 2.167v-4.073l-3.513-2.167zm8.2 0-3.52 2.167v4.073l3.513-2.167v-4.067zM6.087 16.933a24.956 24.956 0 0 0 3.218 2.915l.062.045c.2 1.56.513 3.013.927 4.32l-.653.08c-1.333.133-2.493.053-3.387-.22a3.031 3.031 0 0 1-1.846-1.302l-.007-.012c-.347-.607-.427-1.36-.213-2.267s.72-1.953 1.507-3.04a7.78 7.78 0 0 1 .393-.52zm19.933 0 .4.52a8.845 8.845 0 0 1 1.485 2.977l.015.063c.213.907.133 1.66-.213 2.267a3.026 3.026 0 0 1-1.833 1.309l-.021.004c-.893.267-2.053.353-3.387.22-.213-.02-.433-.047-.647-.08.398-1.235.721-2.699.908-4.206l.012-.121a24.867 24.867 0 0 0 3.273-2.939l.014-.015zm-4.6 3.9a22.542 22.542 0 0 1-.798 3.327l.045-.16a22.458 22.458 0 0 1-3.281-.986l.155.053a31.536 31.536 0 0 0 3.997-2.311l-.11.071zm-10.733 0a30.706 30.706 0 0 0 3.702 2.164l.185.083c-.851.334-1.892.651-2.962.891l-.151.029a20.9 20.9 0 0 1-.741-3.04l-.019-.133zm5.4.054.047.027.04-.027h-.087zm-.034 2.866c1.453.6 2.867 1.067 4.207 1.36l-.253.6a8.95 8.95 0 0 1-1.887 2.827l.001-.001a3.01 3.01 0 0 1-2.06.946h-.006a3.014 3.014 0 0 1-2.052-.952l-.002-.002c-.68-.64-1.333-1.6-1.88-2.82-.093-.2-.18-.4-.26-.607 1.34-.3 2.76-.753 4.207-1.367z"/>
    </symbol>
    <symbol id="icon-star" viewBox="0 0 32 32">
      <path d="M6.693 0 17.35 10.184l14.322-3.491-10.184 10.658 3.491 14.322-10.657-10.184L0 24.98l10.184-10.657L6.693.001z"/>
    </symbol>
    <symbol id="icon-telephone" viewBox="0 0 32 32">
      <path d="m27.655 22.957-.173-.216c-1.372-1.734-2.52-2.637-3.503-2.756-.85-.116-1.673.472-2.548 1.078l-.935.584c-.092.048-.2.093-.312.128l-.014.004c-.547.154-1.927.245-2.708-.47-.91-.832-2.32-2.354-3.418-3.685-1.048-1.377-2.2-3.095-2.801-4.176-.508-.916-.083-2.197.201-2.672.056-.093.13-.185.21-.276l.825-.761c.012-.012.017-.027.028-.038.008-.008.021-.005.03-.012.745-.628 1.514-1.274 1.62-2.105.123-.976-.483-2.296-1.858-4.03l-.168-.215C11.28 2.248 9.994.599 8.146.87c-.727.108-1.376.356-2.046.776-.006.004-.01.012-.016.016-.005.004-.012.004-.017.008l-.932.69c-.01.006-.015.018-.024.026-.007.006-.017.008-.025.014a13.74 13.74 0 0 0-.323.28c-.945.843-2.992 3.29-1.596 7.815.901 2.923 2.76 6.333 5.388 9.883l-.025.021 1.449 1.805.012-.009c2.85 3.37 5.75 5.976 8.407 7.553 1.773 1.054 3.322 1.402 4.597 1.402 1.677 0 2.879-.603 3.481-.995l.379-.253c.043-.03.073-.071.104-.108l.825-.622c.01-.008.015-.018.024-.026.004-.004.01-.003.016-.007.587-.536.994-1.097 1.276-1.763.732-1.705-.578-3.338-1.445-4.42zm.465 4.002c-.22.517-.541.957-1.005 1.384l-1.228.924c-1.112.722-3.49 1.616-6.943-.435-2.657-1.577-5.582-4.244-8.461-7.712l-.779-.984c-2.71-3.595-4.617-7.037-5.517-9.955-1.17-3.793.304-5.828 1.29-6.706.1-.091.2-.175.3-.259l.003-.004.895-.663a4.011 4.011 0 0 1 1.605-.621l.023-.003c1.239-.186 2.247 1.12 2.987 2.07l.173.22c1.536 1.937 1.684 2.858 1.636 3.234-.053.418-.688.952-1.248 1.423l-.079.067-.006.009-.012.007-.852.788c-.006.005-.008.012-.014.018s-.016.01-.021.016c-.121.133-.232.28-.33.437l-.007.013c-.48.801-.931 2.457-.218 3.738.623 1.12 1.808 2.89 2.898 4.319 1.138 1.381 2.59 2.95 3.532 3.81.705.643 1.686.86 2.536.86.454 0 .872-.063 1.188-.153.166-.048.338-.117.516-.204.01-.005.016-.014.026-.021.006-.003.014-.001.019-.005l.99-.619c.031-.021.053-.05.08-.076l.011.013c.61-.422 1.304-.918 1.739-.846.385.046 1.26.417 2.799 2.36l.177.222c.75.935 1.776 2.215 1.297 3.334z"/>
    </symbol>
    <symbol id="icon-treatment" viewBox="0 0 32 32">
      <path d="M10.795 11.677H2.109a.473.473 0 0 0-.477.464v2.776a.47.47 0 0 0 .483.464h.483v10.645c0 .255.216.457.483.457h6.746a.468.468 0 0 0 .483-.457V15.381h.483c.261 0 .483-.209.483-.457v-2.782c0-.261-.216-.457-.483-.457zm-5.303 8.79v-.921h2.893v-.934h-2.9v-.927h3.853V23.7H5.485v-2.312h.96v-.927h-.953zm3.853-3.696h-4.33c-.261 0-.483.202-.483.457v6.942a.47.47 0 0 0 .483.464h4.343v.927H3.559V15.38h5.793v1.391zm.967-2.319H2.599v-1.848h7.713v1.848zm6.877-2.684V8.385a.48.48 0 0 0-.483-.477h-.483V5.524h.967v-.953h-5.309v.953h3.376v2.384h-.483a.48.48 0 0 0-.483.477v3.383a2.402 2.402 0 0 0-1.927 2.33v11.913c0 .261.216.47.483.47h5.786a.48.48 0 0 0 .483-.47V14.099a2.397 2.397 0 0 0-1.911-2.329l-.015-.003zm-1.934-2.913h.967v2.86h-.967v-2.86zm-.483 3.814h1.94c.791 0 1.433.64 1.437 1.43v.477h-4.82v-.477c0-.784.653-1.43 1.443-1.43zm3.377 10.959h-4.82v-.953h1.927v-.953h-1.927v-6.191h4.82v8.098zm-4.82 1.907v-.953h4.82v.953h-4.82zm16.189-14.446h-8.15a.458.458 0 0 0-.457.457v14.472a.46.46 0 0 0 .457.464h8.15a.458.458 0 0 0 .457-.457V11.546a.458.458 0 0 0-.457-.457zm-.457 14.465h-7.236V12.016h7.236v13.538z"/>
      <path d="M8.869 20.565H7.661v.588h1.208v-.588zm8.437 1.182h-1.208v1.182h1.208v-1.182zm-1.502-1.182h.013a2.09 2.09 0 0 0 2.09-2.076v-.001a2.09 2.09 0 0 0-2.09-2.07h-.021.001-.02a2.09 2.09 0 0 0-2.09 2.069v.001a2.09 2.09 0 0 0 2.09 2.077h.021-.001zm0-3.115c.575 0 1.045.47 1.045 1.045a1.045 1.045 0 0 1-1.045 1.032h-.013a1.045 1.045 0 0 1-1.045-1.038c0-.568.47-1.038 1.051-1.038zm8.509-1.626h2.26c.875 0 1.587-.666 1.587-1.482s-.718-1.476-1.587-1.476h-2.26c-.875 0-1.58.66-1.58 1.476s.705 1.482 1.58 1.482zm2.939-1.483c0 .353-.307.64-.679.64h-.679v-1.273h.679c.372 0 .679.287.679.633zm-2.939-.633h.679v1.273h-.679c-.372 0-.679-.287-.679-.64 0-.346.307-.633.679-.633zm0 6.857h2.26c.875 0 1.587-.797 1.587-1.776s-.718-1.783-1.587-1.783h-2.26c-.875 0-1.58.797-1.58 1.783 0 .98.705 1.776 1.58 1.776zm2.939-1.776c0 .418-.307.758-.679.758h-.679v-1.522h.679c.372 0 .679.34.679.764zm-2.939-.765h.679v1.522h-.679c-.372 0-.679-.34-.679-.758 0-.424.307-.764.679-.764zm0 6.681h2.26c.875 0 1.587-.797 1.587-1.776s-.718-1.776-1.587-1.776h-2.26c-.875 0-1.58.797-1.58 1.776s.705 1.776 1.58 1.776zm2.939-1.776c0 .424-.307.764-.679.764h-.679v-1.522h.679c.372 0 .679.34.679.758zm-2.939-.758h.679v1.522h-.679c-.372 0-.679-.34-.679-.764 0-.418.307-.758.679-.758z"/>
    </symbol>
  </defs>
</svg>
