<svg aria-hidden="true" style="position: absolute; width: 0; height: 0; overflow: hidden;" version="1.1" xmlns="http://www.w3.org/2000/svg" xmlns:xlink="http://www.w3.org/1999/xlink">
<defs>
<symbol id="icon-arrow" viewBox="0 0 32 32">
<path d="M0.944 17.257c-0.322-0.322-0.52-0.766-0.52-1.257s0.199-0.935 0.52-1.257l11.314-11.314c0.324-0.335 0.777-0.543 1.279-0.543 0.982 0 1.778 0.796 1.778 1.778 0 0.502-0.208 0.955-0.542 1.278l-0.001 0-10.057 10.057 10.057 10.057c0.335 0.324 0.543 0.777 0.543 1.279 0 0.982-0.796 1.778-1.778 1.778-0.502 0-0.955-0.208-1.278-0.542l-0-0-11.316-11.314zM32 17.778h-29.799v-3.556h29.799v3.556z"></path>
</symbol>
<symbol id="icon-crown" viewBox="0 0 32 32">
<path d="M29.687 10.327c-0.29-0.275-0.683-0.445-1.115-0.445-0.264 0-0.514 0.063-0.734 0.176l0.009-0.004-6.307 3.080c-0.032 0.019-0.071 0.030-0.112 0.030-0.060 0-0.115-0.024-0.155-0.064v0c-0.027-0.022-0.049-0.048-0.066-0.079l-0.001-0.001-3.673-7.287c-0.148-0.302-0.366-0.55-0.633-0.729l-0.007-0.004c-0.25-0.166-0.557-0.264-0.887-0.264s-0.637 0.099-0.893 0.268l0.006-0.004c-0.267 0.18-0.487 0.433-0.64 0.733l-3.687 7.287c-0.015 0.031-0.035 0.058-0.060 0.080l-0 0c-0.022 0.023-0.049 0.041-0.078 0.053l-0.002 0.001c-0.033 0.007-0.067 0.013-0.093 0.007-0.034-0.002-0.066-0.012-0.094-0.027l0.001 0.001-6.313-3.080c-0.212-0.11-0.462-0.174-0.728-0.174-0.429 0-0.818 0.168-1.106 0.442l0.001-0.001c-0.253 0.227-0.44 0.533-0.547 0.867-0.057 0.182-0.090 0.392-0.090 0.61 0 0.162 0.018 0.32 0.053 0.471l-0.003-0.014 3.18 14.88c0.057 0.265 0.158 0.5 0.298 0.707l-0.005-0.007c0.133 0.207 0.313 0.38 0.52 0.513 0.249 0.17 0.557 0.272 0.888 0.272 0.168 0 0.331-0.026 0.483-0.075l-0.011 0.003c2.668-0.844 5.736-1.33 8.918-1.33 3.174 0 6.234 0.484 9.112 1.382l-0.217-0.058c0.146 0.048 0.314 0.076 0.488 0.076 0.327 0 0.631-0.098 0.885-0.267l-0.006 0.004c0.2-0.133 0.38-0.307 0.527-0.52 0.133-0.2 0.24-0.447 0.293-0.7l3.173-14.887c0.080-0.347 0.067-0.713-0.033-1.053-0.101-0.346-0.286-0.642-0.532-0.872l-0.001-0.001zM28.813 11.86l-3.187 14.9c-0.020 0.067-0.060 0.133-0.113 0.173-0.067 0.033-0.133 0.047-0.2 0.033-2.786-0.881-5.99-1.389-9.313-1.389s-6.527 0.508-9.539 1.45l0.226-0.061c-0.020 0.006-0.043 0.010-0.067 0.010-0.050 0-0.096-0.016-0.134-0.044l0.001 0c-0.027-0.020-0.049-0.044-0.066-0.072l-0.001-0.001c-0.021-0.028-0.037-0.062-0.046-0.098l-0-0.002-3.187-14.893c-0.003-0.015-0.004-0.033-0.004-0.051 0-0.068 0.021-0.132 0.058-0.184l-0.001 0.001c0.023-0.033 0.052-0.060 0.085-0.079l0.001-0.001c0.033-0.020 0.067-0.027 0.113-0.033l0.1 0.033 6.32 3.093c0.4 0.2 0.853 0.22 1.267 0.067s0.76-0.467 0.973-0.893l3.687-7.287c0.019-0.044 0.049-0.080 0.086-0.106l0.001-0.001c0.035-0.025 0.079-0.040 0.127-0.040s0.091 0.015 0.127 0.041l-0.001-0c0.033 0.027 0.067 0.067 0.087 0.107l3.687 7.287c0.207 0.42 0.56 0.74 0.973 0.893s0.867 0.133 1.267-0.067l6.32-3.093c0.031-0.017 0.067-0.026 0.106-0.026 0.063 0 0.119 0.025 0.16 0.066v0c0.033 0.033 0.067 0.073 0.080 0.12 0.013 0.053 0.013 0.1 0 0.153zM20.747 22.313c-0.020 0.2-0.107 0.393-0.247 0.533-0.133 0.133-0.313 0.213-0.5 0.213h-0.073c-1.178-0.138-2.543-0.217-3.927-0.217s-2.748 0.079-4.091 0.232l0.164-0.015c-0.2 0.020-0.393-0.040-0.547-0.18-0.153-0.133-0.253-0.333-0.28-0.547-0.013-0.22 0.047-0.44 0.173-0.607 0.127-0.173 0.307-0.28 0.507-0.307 2.707-0.313 5.44-0.313 8.147 0 0.2 0.027 0.38 0.133 0.5 0.3 0.133 0.167 0.193 0.38 0.173 0.6z"></path>
</symbol>
<symbol id="icon-facebook" viewBox="0 0 32 32">
<path d="M23.987 2.128c-1.181-0.133-2.549-0.208-3.936-0.208-0.040 0-0.080 0-0.12 0h0.006c-4.484 0-7.27 2.856-7.27 7.453v3.122h-3.767c0 0 0 0 0 0-0.368 0-0.666 0.298-0.667 0.666v5.134c0.001 0.368 0.299 0.666 0.667 0.666 0 0 0 0 0 0h3.767v10.294c0.001 0.368 0.298 0.665 0.666 0.666h5.304c0 0 0 0 0 0 0.368 0 0.666-0.298 0.667-0.666v-10.295h3.755c0.338-0 0.616-0.251 0.661-0.577l0-0.003 0.663-5.133c0.004-0.026 0.006-0.057 0.006-0.088 0-0.367-0.298-0.665-0.665-0.665-0.001 0-0.002 0-0.003 0h-4.417v-2.611c0-1.294 0.26-1.834 1.877-1.834h2.72c0.368-0.001 0.665-0.298 0.666-0.666v-4.594c-0.001-0.337-0.251-0.616-0.577-0.66l-0.003-0zM23.233 6.715l-2.053 0.001c-2.876 0-3.21 1.808-3.21 3.167v3.28c0.001 0.368 0.298 0.665 0.666 0.666h4.328l-0.492 3.8h-3.835c-0.368 0.001-0.666 0.299-0.666 0.667 0 0 0 0 0 0v0 10.29h-3.971v-10.29c0 0 0 0 0 0 0-0.368-0.299-0.667-0.667-0.667-0 0-0.001 0-0.001 0h-3.764v-3.8h3.765c0 0 0 0 0 0 0.368 0 0.666-0.298 0.667-0.666v-3.79c0-3.832 2.22-6.12 5.937-6.12 1.346 0 2.56 0.074 3.296 0.138v3.324z"></path>
</symbol>
<symbol id="icon-instagram" viewBox="0 0 32 32">
<path d="M16 10.25c-3.176 0-5.75 2.574-5.75 5.75s2.574 5.75 5.75 5.75v0c3.176 0 5.75-2.574 5.75-5.75s-2.574-5.75-5.75-5.75v0zM16 20.25c-2.347 0-4.25-1.903-4.25-4.25s1.903-4.25 4.25-4.25c2.347 0 4.25 1.903 4.25 4.25v0c-0.007 2.344-1.906 4.243-4.249 4.25h-0.001zM21.5 3.75h-11c-3.728 0-6.75 3.022-6.75 6.75v0 11c0 3.728 3.022 6.75 6.75 6.75v0h11c3.728 0 6.75-3.022 6.75-6.75v0-11c0-3.728-3.022-6.75-6.75-6.75v0zM26.75 21.5c0 2.899-2.351 5.25-5.25 5.25v0h-11c-2.899 0-5.25-2.351-5.25-5.25v0-11c0-2.899 2.351-5.25 5.25-5.25v0h11c2.899 0 5.25 2.351 5.25 5.25v0 11zM23.75 9.5c0 0.69-0.56 1.25-1.25 1.25s-1.25-0.56-1.25-1.25v0c0-0.69 0.56-1.25 1.25-1.25s1.25 0.56 1.25 1.25v0z"></path>
</symbol>
<symbol id="icon-science" viewBox="0 0 32 32">
<path d="M16.067 1.4c-1.053 0-2.033 0.48-2.867 1.267-0.895 0.89-1.622 1.947-2.129 3.122l-0.025 0.065c-0.127 0.28-0.247 0.567-0.36 0.867-0.216-0.040-0.533-0.084-0.852-0.12l-0.075-0.007c-0.301-0.033-0.666-0.057-1.035-0.066l-0.018-0c-1.027-0.020-1.967 0.087-2.787 0.333-1.093 0.333-2 0.94-2.527 1.853-0.52 0.907-0.6 2-0.333 3.113 0.358 1.321 0.938 2.474 1.704 3.477l-0.018-0.024c0.18 0.247 0.367 0.493 0.567 0.74-0.168 0.207-0.354 0.45-0.533 0.698l-0.033 0.048c-0.751 0.979-1.333 2.132-1.677 3.383l-0.016 0.070c-0.097 0.337-0.152 0.723-0.152 1.123 0 0.729 0.185 1.414 0.51 2.012l-0.011-0.022c0.573 0.907 1.459 1.572 2.504 1.847l0.029 0.007c1.093 0.333 2.393 0.407 3.833 0.267 0.307-0.033 0.613-0.073 0.933-0.127 0.107 0.293 0.227 0.58 0.353 0.867 0.6 1.32 1.313 2.407 2.147 3.193 0.733 0.749 1.74 1.225 2.859 1.266l0.008 0c1.053 0 2.033-0.487 2.867-1.267 0.894-0.893 1.618-1.956 2.122-3.135l0.025-0.065c0.133-0.28 0.247-0.567 0.36-0.86 0.313 0.053 0.627 0.093 0.927 0.12 1.44 0.147 2.747 0.067 3.84-0.26 1.093-0.333 2-0.94 2.527-1.853 0.527-0.907 0.6-2 0.333-3.113-0.358-1.321-0.938-2.474-1.704-3.477l0.018 0.024c-0.212-0.294-0.398-0.534-0.59-0.77l0.024 0.030c0.2-0.247 0.387-0.493 0.567-0.747 0.751-0.979 1.333-2.132 1.677-3.384l0.016-0.070c0.26-1.12 0.187-2.207-0.34-3.113-0.571-0.906-1.455-1.571-2.497-1.847l-0.029-0.007c-0.731-0.216-1.571-0.34-2.44-0.34-0.122 0-0.244 0.002-0.364 0.007l0.017-0.001c-0.387 0.010-0.752 0.034-1.114 0.072l0.060-0.005c-0.3 0.033-0.613 0.073-0.927 0.127-0.152-0.403-0.273-0.689-0.402-0.97l0.042 0.104c-0.53-1.239-1.254-2.297-2.146-3.186l-0-0c-0.733-0.749-1.74-1.225-2.859-1.266l-0.008-0zM16.067 2.567c0.693 0 1.38 0.307 2.067 0.947 0.673 0.64 1.327 1.6 1.88 2.82l0.253 0.6c-1.333 0.3-2.76 0.76-4.2 1.367-1.453-0.607-2.867-1.067-4.213-1.36l0.26-0.6c0.547-1.227 1.2-2.187 1.88-2.827 0.523-0.553 1.25-0.909 2.060-0.946l0.007-0zM8.333 7.7c0.026-0 0.057-0 0.088-0 0.431 0 0.858 0.022 1.278 0.065l-0.053-0.004 0.653 0.080c-0.399 1.232-0.724 2.694-0.914 4.198l-0.013 0.122c-1.212 0.917-2.285 1.888-3.266 2.944l-0.014 0.016-0.4-0.52c-0.661-0.862-1.176-1.877-1.485-2.977l-0.015-0.063c-0.081-0.261-0.128-0.56-0.128-0.871 0-0.51 0.126-0.991 0.35-1.412l-0.008 0.016c0.422-0.651 1.071-1.124 1.833-1.309l0.021-0.004c0.587-0.18 1.287-0.28 2.073-0.287zM23.787 7.7c0.787 0 1.487 0.1 2.073 0.273 0.784 0.19 1.433 0.666 1.846 1.308l0.007 0.012c0.353 0.607 0.427 1.36 0.213 2.267-0.324 1.163-0.839 2.178-1.516 3.061l0.016-0.021-0.4 0.527c-0.995-1.072-2.068-2.043-3.218-2.915l-0.062-0.045c-0.2-1.56-0.507-3.020-0.92-4.333l0.647-0.073c0.387-0.042 0.836-0.067 1.291-0.067 0.008 0 0.016 0 0.024 0h-0.001zM20.667 8.047c0.292 0.876 0.556 1.944 0.741 3.040l0.019 0.134c-1.104-0.759-2.376-1.506-3.702-2.164l-0.185-0.083c1.087-0.4 2.133-0.713 3.127-0.927zM11.46 8.047c0.987 0.213 2.040 0.527 3.12 0.933-1.508 0.739-2.779 1.484-3.989 2.311l0.11-0.071c0.204-1.229 0.468-2.298 0.805-3.334l-0.045 0.16zM16.060 9.58c1.162 0.513 2.107 1.001 3.021 1.536l-0.141-0.076c0.96 0.553 1.867 1.147 2.7 1.76 0.111 0.967 0.175 2.088 0.175 3.223s-0.064 2.256-0.187 3.359l0.012-0.135c-0.765 0.567-1.647 1.149-2.559 1.684l-0.141 0.076c-0.774 0.461-1.719 0.951-2.692 1.391l-0.188 0.076c-1.161-0.516-2.106-1.006-3.020-1.543l0.14 0.076c-1.053-0.611-1.935-1.192-2.782-1.818l0.082 0.058c-0.11-0.964-0.173-2.082-0.173-3.214 0-0.004 0-0.009 0-0.013v0.001c0-1.107 0.060-2.187 0.173-3.22 0.767-0.567 1.65-1.149 2.565-1.684l0.142-0.076c0.772-0.461 1.715-0.951 2.686-1.391l0.188-0.076zM16.14 11.333l-3.347 2.067 3.347 2.067 3.34-2.067-3.34-2.067zM9.22 13.78c-0.050 0.671-0.079 1.454-0.079 2.243s0.029 1.572 0.085 2.347l-0.006-0.104c-0.86-0.709-1.633-1.444-2.351-2.229l-0.016-0.017c0.734-0.8 1.506-1.533 2.328-2.209l0.039-0.031zM22.907 13.78c0.857 0.707 1.628 1.44 2.344 2.223l0.016 0.017c-0.732 0.803-1.503 1.538-2.322 2.216l-0.038 0.030c0.050-0.671 0.079-1.454 0.079-2.243s-0.029-1.572-0.085-2.347l0.006 0.104zM12.040 14.307v4.073l3.513 2.167v-4.073l-3.513-2.167zM20.24 14.307l-3.52 2.167v4.073l3.513-2.167v-4.067zM6.087 16.933c0.995 1.072 2.068 2.043 3.218 2.915l0.062 0.045c0.2 1.56 0.513 3.013 0.927 4.32l-0.653 0.080c-1.333 0.133-2.493 0.053-3.387-0.22-0.783-0.188-1.432-0.662-1.846-1.302l-0.007-0.012c-0.347-0.607-0.427-1.36-0.213-2.267s0.72-1.953 1.507-3.040c0.127-0.18 0.253-0.353 0.393-0.52zM26.020 16.933l0.4 0.52c0.661 0.863 1.176 1.877 1.485 2.977l0.015 0.063c0.213 0.907 0.133 1.66-0.213 2.267-0.421 0.652-1.070 1.125-1.833 1.309l-0.021 0.004c-0.893 0.267-2.053 0.353-3.387 0.22-0.213-0.020-0.433-0.047-0.647-0.080 0.398-1.235 0.721-2.699 0.908-4.206l0.012-0.121c1.216-0.915 2.29-1.884 3.273-2.939l0.014-0.015zM21.42 20.833c-0.202 1.226-0.464 2.293-0.798 3.327l0.045-0.16c-1.226-0.274-2.271-0.595-3.281-0.986l0.155 0.053c1.511-0.739 2.784-1.484 3.997-2.311l-0.11 0.071zM10.687 20.833c1.103 0.759 2.376 1.506 3.702 2.164l0.185 0.083c-0.851 0.334-1.892 0.651-2.962 0.891l-0.151 0.029c-0.292-0.876-0.556-1.944-0.741-3.040l-0.019-0.133zM16.087 20.887l0.047 0.027 0.040-0.027h-0.087zM16.053 23.753c1.453 0.6 2.867 1.067 4.207 1.36l-0.253 0.6c-0.467 1.098-1.103 2.036-1.887 2.827l0.001-0.001c-0.523 0.554-1.25 0.91-2.060 0.946l-0.006 0c-0.813-0.042-1.535-0.4-2.052-0.952l-0.002-0.002c-0.68-0.64-1.333-1.6-1.88-2.82-0.093-0.2-0.18-0.4-0.26-0.607 1.34-0.3 2.76-0.753 4.207-1.367z"></path>
</symbol>
<symbol id="icon-star" viewBox="0 0 32 32">
<path d="M6.693 0l10.657 10.184 14.322-3.491-10.184 10.658 3.491 14.322-10.657-10.184-14.322 3.491 10.184-10.657-3.491-14.322z"></path>
</symbol>
<symbol id="icon-telephone" viewBox="0 0 32 32">
<path d="M27.655 22.957l-0.173-0.216c-1.372-1.734-2.52-2.637-3.503-2.756-0.85-0.116-1.673 0.472-2.548 1.078l-0.935 0.584c-0.092 0.048-0.2 0.093-0.312 0.128l-0.014 0.004c-0.547 0.154-1.927 0.245-2.708-0.47-0.91-0.832-2.32-2.354-3.418-3.685-1.048-1.377-2.2-3.095-2.801-4.176-0.508-0.916-0.083-2.197 0.201-2.672 0.056-0.093 0.13-0.185 0.21-0.276l0.825-0.761c0.012-0.012 0.017-0.027 0.028-0.038 0.008-0.008 0.021-0.005 0.030-0.012 0.745-0.628 1.514-1.274 1.62-2.105 0.123-0.976-0.483-2.296-1.858-4.030l-0.168-0.215c-0.851-1.091-2.137-2.74-3.985-2.469-0.727 0.108-1.376 0.356-2.046 0.776-0.006 0.004-0.010 0.012-0.016 0.016-0.005 0.004-0.012 0.004-0.017 0.008l-0.932 0.69c-0.010 0.006-0.015 0.018-0.024 0.026-0.007 0.006-0.017 0.008-0.025 0.014-0.108 0.091-0.216 0.184-0.323 0.28-0.945 0.843-2.992 3.29-1.596 7.815 0.901 2.923 2.76 6.333 5.388 9.883l-0.025 0.021 1.449 1.805 0.012-0.009c2.85 3.37 5.75 5.976 8.407 7.553 1.773 1.054 3.322 1.402 4.597 1.402 1.677 0 2.879-0.603 3.481-0.995l0.379-0.253c0.043-0.030 0.073-0.071 0.104-0.108l0.825-0.622c0.010-0.008 0.015-0.018 0.024-0.026 0.004-0.004 0.010-0.003 0.016-0.007 0.587-0.536 0.994-1.097 1.276-1.763 0.732-1.705-0.578-3.338-1.445-4.42zM28.12 26.959c-0.22 0.517-0.541 0.957-1.005 1.384l-1.228 0.924c-1.112 0.722-3.49 1.616-6.943-0.435-2.657-1.577-5.582-4.244-8.461-7.712l-0.779-0.984c-2.71-3.595-4.617-7.037-5.517-9.955-1.17-3.793 0.304-5.828 1.29-6.706 0.1-0.091 0.2-0.175 0.3-0.259l0.003-0.004 0.895-0.663c0.463-0.309 1.013-0.529 1.605-0.621l0.023-0.003c1.239-0.186 2.247 1.12 2.987 2.070l0.173 0.22c1.536 1.937 1.684 2.858 1.636 3.234-0.053 0.418-0.688 0.952-1.248 1.423l-0.079 0.067-0.006 0.009-0.012 0.007-0.852 0.788c-0.006 0.005-0.008 0.012-0.014 0.018s-0.016 0.010-0.021 0.016c-0.121 0.133-0.232 0.28-0.33 0.437l-0.007 0.013c-0.48 0.801-0.931 2.457-0.218 3.738 0.623 1.12 1.808 2.89 2.898 4.319 1.138 1.381 2.59 2.95 3.532 3.81 0.705 0.643 1.686 0.86 2.536 0.86 0.454 0 0.872-0.063 1.188-0.153 0.166-0.048 0.338-0.117 0.516-0.204 0.010-0.005 0.016-0.014 0.026-0.021 0.006-0.003 0.014-0.001 0.019-0.005l0.99-0.619c0.031-0.021 0.053-0.050 0.080-0.076l0.011 0.013c0.61-0.422 1.304-0.918 1.739-0.846 0.385 0.046 1.26 0.417 2.799 2.36l0.177 0.222c0.75 0.935 1.776 2.215 1.297 3.334z"></path>
</symbol>
<symbol id="icon-treatment" viewBox="0 0 32 32">
<path d="M10.795 11.677h-8.686c-0.261 0-0.477 0.209-0.477 0.464v2.776c0 0.261 0.216 0.464 0.483 0.464h0.483v10.645c0 0.255 0.216 0.457 0.483 0.457h6.746c0.268 0 0.483-0.202 0.483-0.457v-10.645h0.483c0.261 0 0.483-0.209 0.483-0.457v-2.782c0-0.261-0.216-0.457-0.483-0.457zM5.492 20.467v-0.921h2.893v-0.934h-2.9v-0.927h3.853v6.015h-3.853v-2.312h0.96v-0.927h-0.953zM9.345 16.771h-4.33c-0.261 0-0.483 0.202-0.483 0.457v6.942c0 0.261 0.215 0.464 0.483 0.464h4.343v0.927h-5.799v-10.181h5.793v1.391zM10.312 14.452h-7.713v-1.848h7.713v1.848zM17.189 11.768v-3.383c0-0.261-0.215-0.477-0.483-0.477h-0.483v-2.384h0.967v-0.953h-5.309v0.953h3.376v2.384h-0.483c-0.261 0-0.483 0.209-0.483 0.477v3.383c-1.1 0.226-1.917 1.182-1.927 2.33v11.913c0 0.261 0.216 0.47 0.483 0.47h5.786c0.261 0 0.483-0.209 0.483-0.47v-11.912c-0.009-1.15-0.826-2.106-1.911-2.329l-0.015-0.003zM15.255 8.855h0.967v2.86h-0.967v-2.86zM14.772 12.669h1.933c0.002 0 0.004 0 0.007 0 0.791 0 1.433 0.64 1.437 1.43v0.477h-4.82v-0.477c0-0.784 0.653-1.43 1.443-1.43zM18.149 23.628h-4.82v-0.953h1.927v-0.953h-1.927v-6.191h4.82v8.098zM13.329 25.535v-0.953h4.82v0.953h-4.82zM29.518 11.089h-8.15c0 0-0 0-0 0-0.252 0-0.457 0.205-0.457 0.457 0 0.002 0 0.005 0 0.007v-0 14.465c0 0.261 0.209 0.464 0.457 0.464h8.15c0 0 0 0 0 0 0.252 0 0.457-0.205 0.457-0.457 0-0.002-0-0.005-0-0.007v0-14.465c0-0.002 0-0.004 0-0.007 0-0.252-0.205-0.457-0.457-0.457-0 0-0 0-0 0v0zM29.061 25.554h-7.236v-13.538h7.236v13.538z"></path>
<path d="M8.869 20.565h-1.208v0.588h1.208v-0.588zM17.306 21.747h-1.208v1.182h1.208v-1.182zM15.804 20.565c0.004 0 0.008 0 0.013 0 1.15 0 2.082-0.928 2.090-2.076v-0.001c-0.011-1.146-0.942-2.070-2.090-2.070-0.007 0-0.014 0-0.021 0h0.001c-0.006-0-0.013-0-0.020-0-1.147 0-2.079 0.925-2.090 2.069v0.001c0.007 1.149 0.94 2.077 2.090 2.077 0.007 0 0.014-0 0.021-0h-0.001zM15.804 17.45c0.575 0 1.045 0.47 1.045 1.045-0.007 0.571-0.472 1.032-1.045 1.032-0 0-0 0-0 0v0c-0.004 0-0.008 0-0.013 0-0.575 0-1.041-0.464-1.045-1.038v-0c0-0.568 0.47-1.038 1.051-1.038zM24.313 15.824h2.26c0.875 0 1.587-0.666 1.587-1.482s-0.718-1.476-1.587-1.476h-2.26c-0.875 0-1.58 0.66-1.58 1.476s0.705 1.482 1.58 1.482zM27.252 14.341c0 0.353-0.307 0.64-0.679 0.64h-0.679v-1.273h0.679c0.372 0 0.679 0.287 0.679 0.633zM24.313 13.708h0.679v1.273h-0.679c-0.372 0-0.679-0.287-0.679-0.64 0-0.346 0.307-0.633 0.679-0.633zM24.313 20.565h2.26c0.875 0 1.587-0.797 1.587-1.776s-0.718-1.783-1.587-1.783h-2.26c-0.875 0-1.58 0.797-1.58 1.783 0 0.98 0.705 1.776 1.58 1.776zM27.252 18.789c0 0.418-0.307 0.758-0.679 0.758h-0.679v-1.522h0.679c0.372 0 0.679 0.34 0.679 0.764zM24.313 18.024h0.679v1.522h-0.679c-0.372 0-0.679-0.34-0.679-0.758 0-0.424 0.307-0.764 0.679-0.764zM24.313 24.705h2.26c0.875 0 1.587-0.797 1.587-1.776s-0.718-1.776-1.587-1.776h-2.26c-0.875 0-1.58 0.797-1.58 1.776s0.705 1.776 1.58 1.776zM27.252 22.929c0 0.424-0.307 0.764-0.679 0.764h-0.679v-1.522h0.679c0.372 0 0.679 0.34 0.679 0.758zM24.313 22.171h0.679v1.522h-0.679c-0.372 0-0.679-0.34-0.679-0.764 0-0.418 0.307-0.758 0.679-0.758z"></path>
</symbol>
</defs>
</svg>
